<svg width="42" height="42" viewBox="0 0 42 42" fill="none" xmlns="http://www.w3.org/2000/svg">
<path d="M15.6846 0.0477357C13.9864 0.266858 12.4708 0.896835 11.1926 1.91941C9.44875 3.31631 8.32574 5.06016 7.86011 7.12356C7.6136 8.19178 7.59534 10.0817 7.83272 11.1408C8.40792 13.8068 10.3618 16.2902 12.836 17.4771C14.7807 18.4175 17.2185 18.6184 19.4006 18.0249C21.5096 17.4497 23.71 15.7059 24.8512 13.7064C26.4216 10.9582 26.3942 7.24225 24.7873 4.53974C23.4726 2.33939 21.1992 0.677712 18.8345 0.193817C17.9397 0.0112153 16.4881 -0.0526954 15.6846 0.0477357Z" fill="#D77024" fill-opacity="0.74"/>
<path d="M8.34785 7.23363L8.34731 7.23599C8.23532 7.72126 8.17049 8.42094 8.16494 9.13947C8.15938 9.85873 8.21357 10.5539 8.32061 11.0314L8.32063 11.0314L8.32147 11.0354C8.8641 13.5504 10.7174 15.9062 13.0523 17.0263L13.0537 17.027C14.8837 17.9119 17.1968 18.106 19.269 17.5425C21.2426 17.0043 23.3376 15.3497 24.417 13.4585L24.4171 13.4583C25.8986 10.8656 25.8718 7.34223 24.3577 4.79561C23.1098 2.70744 20.9517 1.13751 18.7345 0.68372C17.8886 0.511086 16.4926 0.450827 15.7476 0.543753C14.136 0.751875 12.7078 1.3476 11.5052 2.30964C9.84333 3.64087 8.78677 5.28857 8.34785 7.23363Z" stroke="#D77024" stroke-opacity="0.74"/>
<path d="M0.163372 27.0081C0.9303 20.9731 3.13978 17.6589 6.8466 16.9924C7.80526 16.8189 8.28916 16.8189 8.61784 16.9924C8.77305 17.0654 9.3939 17.458 10.0056 17.8689C12.4981 19.5123 14.4155 20.1606 16.8258 20.1606C18.1314 20.1606 19.1814 19.9871 20.3683 19.5762C21.5734 19.1471 22.0482 18.9006 23.4908 17.9602C24.2212 17.4854 24.9607 17.0381 25.1342 16.9559C25.5085 16.8007 26.3576 16.8646 27.3711 17.1202C29.2037 17.5887 30.662 18.8221 31.717 20.7691C32.0414 21.3679 31.5989 22.0666 30.9299 22.194C25.8444 23.1624 22 27.632 22 32.9995C22 33.8033 22.0862 34.5869 22.2499 35.3416C22.3964 36.0172 21.9127 36.7048 21.2214 36.7049C19.9503 36.705 18.4814 36.7043 16.7801 36.7043H4.81972L4.13496 36.4943C3.085 36.1656 2.42764 35.773 1.66071 35.0152C0.884649 34.2483 0.428144 33.4357 0.145111 32.3218C-0.0557507 31.491 -0.0466206 28.6881 0.163372 27.0081Z" fill="#D77024" fill-opacity="0.74"/>
<path d="M6.93508 17.4845L6.93563 17.4844L23.4908 17.9602L23.7633 18.3794C23.7633 18.3794 23.7634 18.3793 23.7635 18.3793C24.4819 17.9123 25.1723 17.4961 25.3356 17.4139C25.4163 17.3849 25.6203 17.3563 25.9761 17.3826C26.3259 17.4085 26.7619 17.4823 27.248 17.6049C28.9203 18.0326 30.2756 19.1583 31.2774 21.0073C31.3469 21.1357 31.3405 21.2743 31.2633 21.4078C31.182 21.5482 31.0275 21.6664 30.8364 21.7028C25.5194 22.7153 21.5 27.3875 21.5 32.9995C21.5 33.8391 21.5901 34.6583 21.7612 35.4476C21.8501 35.8572 21.5488 36.2048 21.2213 36.2049C20.5624 36.205 19.8506 36.2048 19.0808 36.2046C18.3654 36.2045 17.5999 36.2043 16.7801 36.2043H4.89467L4.28434 36.0171C4.2839 36.017 4.28347 36.0169 4.28303 36.0167C3.30815 35.7114 2.72074 35.3597 2.01214 34.6596C1.30522 33.9609 0.892467 33.231 0.630475 32.2017C0.546778 31.8523 0.496727 31.0048 0.500168 29.9851C0.50355 28.9831 0.557802 27.8841 0.659448 27.0706C1.03783 24.0936 1.76646 21.8415 2.81846 20.2646C3.85976 18.7037 5.22431 17.7921 6.93508 17.4845Z" stroke="#D77024" stroke-opacity="0.74"/>
<path d="M32.9448 25.0505C32.6411 25.1569 32.4094 25.398 32.3249 25.6955C32.2998 25.7832 32.2497 26.0305 32.2153 26.2466C32.1808 26.4626 32.137 26.71 32.1182 26.8008L32.0869 26.9605L31.8614 27.045C31.7362 27.0888 31.492 27.1922 31.3166 27.2704L30.9973 27.4145L30.5182 27.07C30.2552 26.879 29.9922 26.7006 29.9358 26.6724C29.6916 26.5471 29.3096 26.5565 29.0372 26.6912C28.9652 26.7287 28.6458 27.0199 28.2982 27.3706C27.575 28.097 27.5342 28.1597 27.5374 28.5636C27.5374 28.8923 27.5687 28.9612 28.0352 29.6094L28.3671 30.0728L28.2137 30.4235C28.126 30.6145 28.0321 30.8493 28.0039 30.9432C27.9726 31.0372 27.935 31.1311 27.9131 31.1499C27.8943 31.1687 27.6125 31.2282 27.2838 31.2814C26.6168 31.3941 26.4384 31.4599 26.2505 31.6696C26.1847 31.7385 26.1033 31.8606 26.0658 31.9421C26.0031 32.0798 26 32.1331 26 33.0411V33.9961L26.0877 34.1745C26.1816 34.3687 26.3507 34.5377 26.5479 34.6379C26.6262 34.6786 26.9143 34.7444 27.3088 34.8102C27.6564 34.8696 27.9444 34.9197 27.9444 34.9197C27.9476 34.9197 27.982 35.0074 28.0196 35.1139C28.0603 35.2235 28.1605 35.4677 28.2481 35.6618L28.4016 36.0125L28.0384 36.5229C27.625 37.1053 27.5687 37.2336 27.5875 37.5593C27.6063 37.9256 27.6689 38.0164 28.3452 38.699C29.0591 39.416 29.1562 39.4755 29.5695 39.4724C29.8795 39.4724 29.9358 39.4442 30.5808 38.9839L31.0599 38.6395L31.3793 38.7804C31.5546 38.8587 31.7894 38.9526 31.9022 38.9933C32.0149 39.0309 32.1088 39.0653 32.1151 39.0685C32.1182 39.0716 32.1714 39.3597 32.2309 39.7041C32.2967 40.0955 32.3624 40.3835 32.4031 40.4618C32.5033 40.6591 32.6724 40.8282 32.8665 40.9221L33.045 41.0098H34H34.955L35.1335 40.9221C35.337 40.8219 35.5155 40.6403 35.6031 40.443C35.6344 40.3679 35.7096 40.0297 35.7691 39.6916C35.8254 39.3534 35.8787 39.0747 35.8849 39.0716C35.8912 39.0653 36.007 39.0246 36.1448 38.9745C36.2826 38.9244 36.5237 38.8274 36.6802 38.7522L36.9683 38.6207L37.4474 38.9651C38.1143 39.4411 38.1205 39.4442 38.4618 39.4442C38.8783 39.4442 38.9597 39.391 39.6705 38.6802C40.3405 38.0133 40.4188 37.8943 40.4438 37.5342C40.4626 37.2242 40.3906 37.0646 39.9679 36.4696L39.6141 35.9718L39.7425 35.6869C39.8145 35.5334 39.9147 35.2892 39.9679 35.1452C40.0337 34.9542 40.0744 34.8822 40.1213 34.8728C40.1558 34.8634 40.4376 34.8164 40.7444 34.7632C41.3769 34.6599 41.5648 34.5878 41.7495 34.3812C41.8153 34.3123 41.8967 34.1902 41.9342 34.1088C41.9969 33.971 42 33.9178 42 33.0098V32.0548L41.9123 31.8763C41.8184 31.6853 41.6493 31.5131 41.4583 31.416C41.3863 31.3785 41.0982 31.3127 40.7601 31.2563C40.4438 31.2031 40.1558 31.1468 40.1213 31.1342C40.0775 31.1154 40.0243 31.0152 39.9523 30.8149C39.8959 30.652 39.7988 30.4266 39.7425 30.3107C39.683 30.1949 39.636 30.0822 39.636 30.0603C39.636 30.0383 39.7894 29.8035 39.9773 29.5436C40.1652 29.2806 40.3436 29.0113 40.375 28.9487C40.4658 28.7608 40.472 28.4008 40.3843 28.1722C40.3217 28.0031 40.256 27.9248 39.6861 27.355C38.9816 26.6505 38.8877 26.5847 38.5339 26.5659C38.2207 26.5471 38.0798 26.6098 37.4943 27.0293L36.9714 27.3988L36.6834 27.2642C36.5237 27.189 36.2826 27.0888 36.1448 27.0419C36.007 26.9949 35.8818 26.9448 35.8661 26.9323C35.8505 26.9197 35.791 26.6348 35.7346 26.3029C35.6157 25.6266 35.5468 25.445 35.3401 25.2603C35.074 25.0192 35.0364 25.0098 34.0157 25.0035C33.2078 24.9941 33.0888 25.0004 32.9448 25.0505ZM34.7421 25.9397C34.7577 25.9616 34.8235 26.2967 34.8892 26.6849C34.9519 27.0794 35.0301 27.4364 35.0614 27.499C35.1272 27.6305 35.2712 27.7088 35.7065 27.8434C35.8787 27.8998 36.2168 28.0407 36.4611 28.1597C36.746 28.3006 36.9401 28.3757 37.009 28.3757C37.1468 28.3757 37.2564 28.31 37.8951 27.8497C38.1832 27.6399 38.4462 27.4677 38.4744 27.4677C38.5432 27.4677 39.5421 28.4728 39.5421 28.5417C39.5421 28.5698 39.3511 28.8642 39.1194 29.1898C38.6873 29.7941 38.6341 29.888 38.6341 30.0227C38.6341 30.0634 38.7311 30.2951 38.8501 30.5393C38.9691 30.7804 39.1256 31.1593 39.1977 31.3785C39.3229 31.773 39.3761 31.8606 39.5296 31.9389C39.5671 31.9577 39.9053 32.0235 40.281 32.0861C40.6599 32.1487 40.998 32.2113 41.0387 32.227C41.1076 32.2583 41.1076 32.2583 41.1076 33.0098C41.1076 33.7612 41.1076 33.7612 41.0387 33.7925C40.998 33.8082 40.6599 33.8708 40.2873 33.9303C39.9147 33.9929 39.5765 34.0556 39.5327 34.0712C39.4231 34.1119 39.2978 34.2747 39.2571 34.4282C39.1757 34.7413 39.0505 35.0575 38.8501 35.4677C38.728 35.715 38.6341 35.9499 38.6341 36.0031C38.6341 36.1377 38.6967 36.2473 39.1444 36.8704C39.3636 37.1773 39.5421 37.4528 39.5421 37.481C39.5421 37.5499 38.5401 38.5518 38.4712 38.5518C38.4399 38.5518 38.1863 38.3859 37.9076 38.1855C37.2188 37.6908 37.1374 37.6438 37.0121 37.6438C36.9401 37.6438 36.7491 37.719 36.4611 37.8599C36.2168 37.982 35.8442 38.1354 35.6313 38.2043C35.2305 38.3358 35.1523 38.3828 35.0771 38.5237C35.0552 38.5706 34.9832 38.915 34.9237 39.2908C34.8611 39.6696 34.7984 40.0078 34.7828 40.0454C34.7515 40.1174 34.7515 40.1174 34 40.1174C33.2485 40.1174 33.2485 40.1174 33.2172 40.0454C33.2016 40.0078 33.1389 39.6696 33.0795 39.297C33.0168 38.9244 32.9542 38.5863 32.9386 38.5424C32.8978 38.4329 32.735 38.3076 32.5816 38.2669C32.2779 38.1886 31.9554 38.0634 31.5671 37.8755C31.1288 37.6626 31.0035 37.6376 30.8344 37.7221C30.7843 37.7503 30.4869 37.9538 30.1738 38.1761C29.8638 38.4015 29.5851 38.5832 29.5569 38.5832C29.4881 38.5832 28.4892 37.5781 28.4892 37.5092C28.4892 37.4779 28.6865 37.1773 28.9245 36.8423C29.2501 36.3882 29.3659 36.2004 29.3816 36.1064C29.4004 35.9906 29.3816 35.9374 29.1812 35.5272C29.056 35.2798 28.8994 34.9041 28.8305 34.6912C28.6395 34.1088 28.6771 34.1307 27.7315 33.9679C27.3119 33.8927 26.9487 33.8239 26.9299 33.8113C26.8798 33.7832 26.8767 32.3021 26.9237 32.274C26.9425 32.2614 27.2775 32.1988 27.6689 32.1331C28.0603 32.0673 28.4172 31.9984 28.4611 31.9828C28.5769 31.9389 28.7022 31.7761 28.7397 31.6227C28.8243 31.3002 28.9777 30.8994 29.1436 30.5675C29.3597 30.1354 29.3785 30.0728 29.3252 29.9194C29.3033 29.8536 29.0904 29.5311 28.8556 29.1992C28.6207 28.8673 28.4266 28.5792 28.4266 28.5573C28.4266 28.5323 28.6646 28.2786 28.9558 27.9875C29.4474 27.5021 29.4912 27.4646 29.5538 27.499C29.5914 27.5209 29.8701 27.7119 30.1738 27.9311C30.7405 28.3381 30.9065 28.4227 31.0505 28.3851C31.0975 28.3757 31.3135 28.2755 31.5296 28.1659C31.7456 28.0595 32.0932 27.9123 32.3029 27.8434C32.5127 27.7745 32.7131 27.7025 32.7507 27.6806C32.8853 27.5961 32.9292 27.4614 33.0607 26.7037C33.1296 26.2904 33.1953 25.9428 33.2047 25.9272C33.2141 25.9147 33.5554 25.9021 33.9656 25.9021C34.526 25.9021 34.7202 25.9115 34.7421 25.9397Z" fill="#D77024" fill-opacity="0.74"/>
<path d="M33.6963 29.5687C32.4063 29.6814 31.2665 30.5299 30.7875 31.7354C30.4806 32.5088 30.4775 33.47 30.775 34.2466C31.1256 35.1514 31.8583 35.8841 32.7632 36.2348C33.3456 36.4571 34.072 36.5166 34.6951 36.3914C36.6364 35.9937 37.8481 34.0336 37.3346 32.1111C36.9714 30.746 35.7127 29.6751 34.3601 29.5781C34.2223 29.5687 34.0814 29.5593 34.047 29.553C34.0125 29.5467 33.856 29.5561 33.6963 29.5687ZM34.5636 30.5237C35.5092 30.7272 36.2701 31.4912 36.4924 32.4618C36.5581 32.7499 36.5581 33.2696 36.4892 33.5734C36.4172 33.8927 36.173 34.3875 35.9601 34.6411C35.1836 35.5679 33.8372 35.8246 32.782 35.2454C31.4074 34.4908 31.0317 32.6998 31.9867 31.4505C32.2247 31.1405 32.5159 30.9057 32.8885 30.724C33.4364 30.4579 33.9687 30.3953 34.5636 30.5237Z" fill="#D77024" fill-opacity="0.74"/>
</svg>
