<svg width="46" height="43" viewBox="0 0 46 43" fill="none" xmlns="http://www.w3.org/2000/svg">
<path d="M8.0211 0.619844L8.01879 0.620274C7.67917 0.68346 7.11182 0.87636 6.69013 1.08721L6.69014 1.08724L6.68497 1.08975C6.11315 1.36749 5.8754 1.54595 5.22467 2.20547L5.22466 2.20549C4.57584 2.86301 4.16388 3.4553 3.91746 4.09054C3.67114 4.72554 3.57619 5.43965 3.61533 6.36162L3.61543 6.36432C3.64574 7.18269 3.77663 7.83227 4.02738 8.40889C4.27796 8.98513 4.66029 9.51621 5.23009 10.0817L5.2301 10.0817L5.2328 10.0844C5.78811 10.644 6.31966 11.0251 6.89459 11.2775C7.46981 11.53 8.11367 11.6646 8.90772 11.6992L8.9086 11.6992C9.86348 11.7424 10.642 11.6269 11.3338 11.3453C12.0258 11.0636 12.6625 10.6029 13.3157 9.91081C15.4001 7.70071 15.2887 4.12954 13.0828 2.07402L13.0815 2.07284C11.7207 0.796019 9.87467 0.265975 8.0211 0.619844ZM3.11578 6.38282L3.11582 6.38282L3.11578 6.38282Z" stroke="#D77024" stroke-opacity="0.74"/>
<path d="M31.7697 8.62296L31.7697 8.62296L31.7707 8.625C31.9782 9.06399 32.3452 9.56537 32.7852 10.0204C33.2253 10.4757 33.709 10.854 34.1291 11.0681C34.71 11.3631 35.0359 11.5038 35.3813 11.5803C35.7321 11.658 36.1301 11.6758 36.8667 11.6712V11.6712H36.8698C37.4739 11.6712 37.7892 11.6637 38.0189 11.6351C38.2271 11.6092 38.3689 11.5656 38.6264 11.4669L38.6264 11.4669L38.6282 11.4662C40.3018 10.8323 41.5798 9.53417 42.1595 7.89584L42.1595 7.89584L42.1606 7.89267C42.2709 7.58774 42.3532 7.02687 42.3778 6.40298C42.4021 5.78537 42.3668 5.18343 42.2808 4.80691C41.6114 1.97393 38.7517 0.089756 35.8395 0.575892C33.8418 0.918979 32.0758 2.43993 31.4387 4.38064C31.2661 4.93197 31.2248 5.1922 31.2161 6.02196C31.2116 6.63012 31.237 7.03026 31.3147 7.39605C31.392 7.75958 31.5263 8.11397 31.7697 8.62296Z" stroke="#D77024" stroke-opacity="0.74"/>
<path d="M21.8507 6.20008C20.1525 6.4192 18.6369 7.04918 17.3587 8.07175C15.6149 9.46865 14.4919 11.2125 14.0262 13.2759C13.7797 14.3441 13.7615 16.2341 13.9989 17.2931C14.5741 19.9591 16.5279 22.4425 19.0022 23.6294C20.9469 24.5698 23.3846 24.7707 25.5667 24.1772C27.6757 23.602 29.8761 21.8582 31.0174 19.8587C32.5877 17.1105 32.5603 13.3946 30.9534 10.6921C29.6387 8.49173 27.3653 6.83006 25.0006 6.34616C24.1059 6.16356 22.6542 6.09965 21.8507 6.20008Z" fill="#D77024" fill-opacity="0.74"/>
<path d="M14.514 13.386L14.5134 13.3883C14.4015 13.8736 14.3366 14.5733 14.3311 15.2918C14.3255 16.0111 14.3797 16.7062 14.4868 17.1838L14.4868 17.1838L14.4876 17.1877C15.0302 19.7027 16.8835 22.0586 19.2184 23.1786L19.2198 23.1793C21.0499 24.0643 23.3629 24.2583 25.4351 23.6949C27.4087 23.1566 29.5037 21.502 30.5831 19.6109L30.5832 19.6106C32.0648 17.0179 32.0379 13.4946 30.5239 10.948C29.2759 8.85979 27.1178 7.28986 24.9006 6.83606C24.0547 6.66343 22.6588 6.60317 21.9137 6.6961C20.3021 6.90422 18.874 7.49995 17.6713 8.46198C16.0095 9.79322 14.9529 11.4409 14.514 13.386Z" stroke="#D77024" stroke-opacity="0.74"/>
<path d="M2.30991 12.9417L2.30785 12.9428C1.88204 13.1669 1.4601 13.7338 1.12979 14.8403C0.804671 15.9294 0.597241 17.4454 0.520341 19.4127C0.456746 21.1029 0.538344 21.6281 0.840943 22.2259C0.941205 22.4229 1.15102 22.6847 1.42427 22.938C1.69557 23.1894 1.98927 23.3953 2.2271 23.5034L2.22711 23.5034L2.23026 23.5049C2.69616 23.7206 3.01261 23.832 3.46647 23.9015C3.94317 23.9744 4.57641 24.0018 5.68261 24.0248L5.6832 24.0248L7.55684 24.0659L8.15566 23.489L8.15635 23.4883C9.5914 22.111 11.0728 21.3808 13.0524 21.0637L13.0538 21.0635L13.3074 21.0235C12.8336 20.224 12.3364 19.0298 12.1003 18.1152C11.8123 17.0475 11.6777 15.4439 11.7854 14.4727C11.7854 14.4725 11.7855 14.4722 11.7855 14.472C11.5934 14.5176 11.3849 14.561 11.1755 14.5999C10.6911 14.69 10.1579 14.7645 9.7373 14.7889C7.96736 14.8964 6.49132 14.5133 4.16024 13.3989C3.42889 13.0495 3.05493 12.8942 2.80371 12.8449C2.69411 12.8233 2.62499 12.8262 2.56843 12.8374C2.50641 12.8496 2.43069 12.8774 2.30991 12.9417Z" stroke="#D77024" stroke-opacity="0.74"/>
<path d="M41.8278 13.397L41.8296 13.3961C42.5247 13.0532 42.8922 12.9008 43.1432 12.8518C43.3338 12.8147 43.4478 12.8361 43.6644 12.9461L43.6658 12.9468C44.0442 13.1376 44.4192 13.5861 44.7347 14.4509C45.0475 15.308 45.2752 16.5023 45.4104 18.0666C45.4777 18.8608 45.5066 19.6228 45.4988 20.2594C45.4909 20.9094 45.4449 21.3891 45.3792 21.6412L45.379 21.6417C45.1725 22.4372 44.7191 22.9982 43.8475 23.4625L43.8468 23.4629C43.4182 23.6921 43.1191 23.8124 42.6606 23.8888C42.1751 23.9697 41.5085 24.0018 40.3386 24.0248L40.3377 24.0248L38.4198 24.0659L37.867 23.5274C37.867 23.5274 37.8669 23.5274 37.8669 23.5274C36.3676 22.0665 34.8076 21.2949 32.7253 21.0342L32.6815 21.0282C33.018 20.434 33.4255 19.5732 33.6248 19.0137L41.8278 13.397ZM41.8278 13.397C39.3854 14.5902 37.7438 14.9746 35.7813 14.7501L35.7813 14.7501L35.7772 14.7496C35.2653 14.6867 34.5787 14.5627 34.2108 14.4632M41.8278 13.397L34.2108 14.4632M34.2108 14.4632V15.2302C34.2108 16.8171 34.068 17.7707 33.6249 19.0135L34.2108 14.4632Z" stroke="#D77024" stroke-opacity="0.74"/>
<path d="M13.0129 23.1459C9.30604 23.8124 7.09656 27.1266 6.32963 33.1616C6.11964 34.8416 6.11051 37.6445 6.31137 38.4753C6.5944 39.5892 7.05091 40.4018 7.82697 41.1687C8.5939 41.9265 9.25126 42.3191 10.3012 42.6478L10.986 42.8578H22.9464C36.322 42.8578 35.3359 42.9034 36.7785 42.2004C37.2807 41.9539 37.6459 41.6891 38.148 41.1779C39.6271 39.6897 40.0379 38.0828 39.8006 34.732C39.3441 28.1583 37.1802 24.205 33.5373 23.2737C32.5239 23.0181 31.6748 22.9542 31.3004 23.1094C31.127 23.1916 30.3874 23.6389 29.657 24.1137C28.2145 25.0541 27.7397 25.3006 26.5345 25.7297C25.3476 26.1406 24.2977 26.3141 22.9921 26.3141C20.5817 26.3141 18.6644 25.6658 16.1719 24.0224C15.5602 23.6115 14.9393 23.219 14.7841 23.1459C14.4554 22.9724 13.9715 22.9724 13.0129 23.1459Z" fill="#D77024" fill-opacity="0.74"/>
<path d="M29.9301 24.5326C28.4654 25.4874 27.9549 25.7547 26.7023 26.2008L26.6981 26.2022C25.4566 26.632 24.3512 26.8141 22.9921 26.8141C20.4621 26.8141 18.4506 26.1237 15.8966 24.4398L15.8966 24.4398L15.8931 24.4375C15.5906 24.2343 15.2864 24.036 15.0397 23.8802C14.9163 23.8022 14.8088 23.7358 14.7241 23.6852C14.6816 23.6599 14.6464 23.6394 14.6186 23.6238C14.6047 23.616 14.5936 23.6099 14.5849 23.6053L14.5749 23.6001C14.5725 23.599 14.5714 23.5984 14.5712 23.5983L14.5712 23.5983L14.5608 23.5935L14.5507 23.5881C14.395 23.5059 14.0801 23.4609 13.1019 23.6379L13.1013 23.638C11.3906 23.9456 10.026 24.8572 8.98472 26.4181C7.93272 27.995 7.20409 30.2471 6.82571 33.2241M29.9301 24.5326L29.6572 24.114L29.9295 24.5329C29.9297 24.5328 29.9299 24.5327 29.9301 24.5326ZM29.9301 24.5326C30.6484 24.0657 31.3386 23.6496 31.5019 23.5674M31.5019 23.5674C31.4984 23.5687 31.495 23.57 31.492 23.5713L31.3004 23.1094M31.5019 23.5674C31.5065 23.5651 31.5107 23.563 31.5145 23.5613L31.3004 23.1094M31.5019 23.5674C31.5826 23.5384 31.7866 23.5098 32.1423 23.5361C32.492 23.562 32.928 23.6357 33.414 23.7583M31.3004 23.1094C31.127 23.1916 30.3874 23.6389 29.657 24.1137C28.2145 25.0541 27.7397 25.3006 26.5345 25.7297C25.3476 26.1406 24.2977 26.3141 22.9921 26.3141C20.5817 26.3141 18.6644 25.6658 16.1719 24.0224C15.5602 23.6115 14.9393 23.219 14.7841 23.1459C14.4554 22.9724 13.9715 22.9724 13.0129 23.1459C9.30604 23.8124 7.09656 27.1266 6.32963 33.1616M31.3004 23.1094C31.6748 22.9542 32.5239 23.0181 33.5373 23.2737M6.32963 33.1616L6.82577 33.2236C6.82575 33.2238 6.82573 33.224 6.82571 33.2241M6.32963 33.1616C6.11964 34.8416 6.11051 37.6445 6.31137 38.4753L6.32963 33.1616ZM6.82571 33.2241C6.72406 34.0376 6.66981 35.1366 6.66643 36.1386C6.66299 37.1583 6.71304 38.0058 6.79674 38.3552M6.82571 33.2241L6.79674 38.3552M6.79674 38.3552C7.05873 39.3845 7.47148 40.1145 8.1784 40.8131L6.79674 38.3552ZM33.5373 23.2737L33.4135 23.7582C33.4137 23.7582 33.4138 23.7582 33.414 23.7583M33.5373 23.2737L33.415 23.7585C33.4147 23.7585 33.4143 23.7584 33.414 23.7583M33.5373 23.2737L36.5588 41.7513C37.0023 41.5335 37.3225 41.3048 37.7913 40.8275L37.7934 40.8254C38.4779 40.1366 38.9004 39.4394 39.1336 38.5293C39.3716 37.6007 39.4192 36.4248 39.3018 34.7673L39.3018 34.7666C38.8477 28.2284 36.7145 24.6024 33.414 23.7583M10.4492 42.1702C9.47439 41.8649 8.88699 41.5132 8.17842 40.8131L10.4492 42.1702ZM10.4492 42.1702L11.0609 42.3578L10.4492 42.1702Z" stroke="#D77024" stroke-opacity="0.74"/>
</svg>
