<svg width="47" height="45" viewBox="0 0 47 45" fill="none" xmlns="http://www.w3.org/2000/svg">
<path d="M19.9578 0.513399C19.0887 0.823784 17.7541 1.56871 17.0091 2.18948C11.8257 6.44175 12.7569 15.4119 19.0887 22.2403C21.2925 24.6303 23.0616 25.8408 23.9928 25.6235C25.0171 25.3442 29.4556 20.7505 30.8213 18.5157C32.6215 15.536 33.3043 12.9598 33.1492 9.51456C33.025 6.19344 32.4973 4.82775 30.635 2.96544C28.0278 0.358208 23.4031 -0.72814 19.9578 0.513399ZM26.3207 4.48632C27.5933 5.10709 28.183 5.66579 28.8969 6.90733C29.7039 8.30406 29.828 8.7386 29.7349 10.4147C29.3004 18.2674 17.692 18.3916 17.1333 10.5699C16.916 7.74537 18.2817 5.5106 20.951 4.26905C22.6892 3.46206 24.3963 3.52413 26.3207 4.48632Z" fill="#D77024" fill-opacity="0.74"/>
<path d="M21.4476 6.1005C17.3194 8.18008 18.8093 14.543 23.434 14.543C28.0588 14.543 29.5486 8.18008 25.4205 6.1005C24.8308 5.79012 23.9617 5.54181 23.434 5.54181C22.9374 5.54181 22.0373 5.79012 21.4476 6.1005Z" fill="#D77024" fill-opacity="0.74"/>
<path d="M5.92835 20.3469C5.15239 21.0919 4.62473 22.4265 2.51412 29.1619C1.11739 33.5072 0 37.3871 0 37.7906C0 38.8769 0.869078 40.2426 1.86231 40.7703C3.228 41.4841 43.6401 41.4841 45.0058 40.7703C45.999 40.2426 46.8681 38.8769 46.8681 37.7906C46.8681 37.3871 45.7507 33.5072 44.354 29.1619C42.2434 22.4265 41.7157 21.0919 40.9398 20.3469L40.0086 19.4779L35.9115 19.571C32.0628 19.6641 31.8144 19.6951 31.8144 20.2849C31.8144 20.8435 32.0628 20.9056 34.9183 21.0608L37.9911 21.216L34.9804 24.0095C32.8077 25.9959 31.9696 26.9581 32.0317 27.4237C32.2179 28.6342 33.087 28.1686 36.4392 25.0958C38.3015 23.3887 39.9155 21.992 40.0396 21.992C40.2879 21.992 45.0058 36.9525 45.0058 37.7906C45.0058 38.939 44.1678 39.3735 42.0571 39.3735H40.0707L38.3015 37.356C36.5323 35.3385 35.6322 34.904 35.2597 35.8351C35.1356 36.1455 35.5391 36.8904 36.3461 37.8526L37.6186 39.3735H24.3962C17.1332 39.3735 11.1739 39.3114 11.1739 39.2183C11.1739 39.1252 12.2292 37.6043 13.5017 35.8041C15.9538 32.3588 16.3262 31.3035 15.1468 31.3035C14.5881 31.3035 13.8121 32.2036 11.6394 35.3385L8.84597 39.3425L5.83523 39.3735C2.63827 39.3735 1.86231 39.0631 1.86231 37.7595C1.86231 36.7663 6.54912 22.1782 7.0147 21.6816C7.35612 21.3402 8.44247 21.185 11.267 21.0608C14.8054 20.9056 15.0537 20.8746 15.0537 20.2849C15.0537 19.6951 14.8054 19.6641 10.9566 19.571L6.8595 19.4779L5.92835 20.3469Z" fill="#D77024" fill-opacity="0.74"/>
<path d="M12.5086 25.7163C11.7636 26.0267 11.5153 27.2372 12.1982 27.2993C14.2157 27.4855 15.3641 26.9268 14.8675 25.9957C14.5571 25.3749 13.6259 25.2507 12.5086 25.7163Z" fill="#D77024" fill-opacity="0.74"/>
<path d="M18.8404 26.8652C18.3127 27.3929 18.6852 28.2309 19.6784 28.7275C21.6649 29.6587 22.565 28.3861 20.7337 27.2687C19.6474 26.6169 19.1818 26.5238 18.8404 26.8652Z" fill="#D77024" fill-opacity="0.74"/>
<path d="M6.7353 28.4477C6.11453 29.1306 6.0835 29.5651 6.61115 29.9997C7.23192 30.5273 8.44242 29.5651 8.31827 28.7271C8.19411 27.858 7.38711 27.7028 6.7353 28.4477Z" fill="#D77024" fill-opacity="0.74"/>
<path d="M38.6429 30.0614C37.9911 30.7752 38.2083 31.6133 39.0464 31.6133C39.8223 31.6133 40.7845 30.5269 40.5673 29.9062C40.2879 29.2544 39.3257 29.3164 38.6429 30.0614Z" fill="#D77024" fill-opacity="0.74"/>
<path d="M25.0481 30.279C24.9239 30.3721 24.8308 30.7446 24.8308 31.0549C24.8308 31.7378 26.6931 32.731 27.438 32.4517C28.3071 32.1102 27.9967 31.1481 26.8483 30.5894C25.6378 29.9996 25.3585 29.9686 25.0481 30.279Z" fill="#D77024" fill-opacity="0.74"/>
<path d="M31.7833 32.3899C31.3798 33.4142 31.9075 33.8798 33.2732 33.6625C34.6389 33.4452 35.1355 33.0417 34.8562 32.3278C34.6389 31.7381 32.0006 31.7691 31.7833 32.3899Z" fill="#D77024" fill-opacity="0.74"/>
<path d="M10.3047 43.3774C10.0564 43.5326 9.93226 43.905 9.99433 44.2154C10.0875 44.7741 10.522 44.8052 16.947 44.8983C22.8132 44.9604 23.8685 44.8983 23.9927 44.4948C24.1168 44.2465 23.9617 43.843 23.7133 43.5636C23.3098 43.1912 22.1925 43.098 16.978 43.098C13.5327 43.098 10.522 43.2222 10.3047 43.3774Z" fill="#D77024" fill-opacity="0.74"/>
<path d="M26.5689 43.5014C26.2275 43.7497 26.1034 44.0911 26.2586 44.4325C26.5069 45.1464 29.6418 45.2085 29.9211 44.4946C30.3556 43.3772 27.8105 42.6013 26.5689 43.5014Z" fill="#D77024" fill-opacity="0.74"/>
<path d="M32.3421 43.3777C32.0938 43.5329 31.9696 43.9053 32.0317 44.2157C32.1248 44.7434 32.4973 44.8054 36.5012 44.8986C40.35 44.9606 40.9087 44.8986 41.0949 44.464C41.5295 43.3466 40.7535 43.0983 36.6564 43.0983C34.5148 43.0983 32.5593 43.2225 32.3421 43.3777Z" fill="#D77024" fill-opacity="0.74"/>
</svg>
