<svg width="59" height="54" viewBox="0 0 59 54" fill="none" xmlns="http://www.w3.org/2000/svg">
<path d="M19.6536 0.0741215C18.613 0.217406 18.4458 0.325468 18.1706 0.959502L17.9192 1.58159L17.3449 1.49801C15.8977 1.28249 15.9813 1.27055 15.1682 1.74936C14.1037 2.37145 12.2261 4.26101 11.592 5.33744C10.9341 6.46163 10.4559 7.69387 10.2046 8.9494C9.89353 10.4443 10.001 12.8366 10.432 14.2838C10.6595 15.0133 10.7311 15.4796 10.6834 15.7787C10.5759 16.4008 10.8273 17.7405 11.1735 18.482C11.5204 19.2116 12.1664 19.8098 12.7282 19.9172C13.0631 19.9769 13.1586 20.0844 13.4338 20.7184C13.9479 21.9262 14.8094 23.1943 15.7306 24.1394L16.6034 25.0241V25.897V26.7585L16.0655 27.2367C15.4792 27.7507 14.6064 28.0737 9.96576 29.4851C4.77469 31.0522 2.92094 31.8534 1.70123 33.0254C0.301822 34.3651 -0.116689 35.6564 0.0265958 38.18C0.0862977 39.4959 0.409285 42.0314 0.529286 42.2225C0.636749 42.4141 4.50006 43.9568 6.61709 44.6625C10.0022 45.7867 13.5544 46.6117 16.5801 46.9705C17.2142 47.0422 17.441 47.0302 17.3933 46.9347C17.3694 46.8631 16.5563 45.7144 15.5992 44.3992L13.853 41.9831L14.8577 40.2726L15.8625 38.5621L28.0142 38.5024L40.154 38.4427L41.0746 37.3305C41.96 36.2421 41.9839 36.1944 41.9116 35.7155C41.7087 34.3878 40.4167 32.7496 38.9576 31.9836C37.7618 31.3495 35.5009 30.5245 32.4513 29.6033C26.5068 27.7853 26.0166 27.5937 25.5617 26.8641C25.4065 26.6128 25.3342 26.2659 25.3342 25.8235C25.3342 25.1776 25.3462 25.1537 25.8721 24.7471C26.7575 24.0653 27.9295 22.5346 28.5874 21.1829C28.9939 20.3578 29.2572 19.9632 29.3886 19.9632C29.496 19.9632 29.8429 19.808 30.142 19.6163C30.5725 19.3411 30.776 19.0904 31.0871 18.4563C31.4459 17.7387 31.4937 17.5113 31.5534 16.2677C31.6131 15.3703 31.7325 14.5453 31.9122 13.9232C32.3187 12.5357 32.3307 9.82045 31.9361 8.38522C31.0029 4.94042 28.539 2.11772 25.3217 0.814425C23.7085 0.157704 21.3282 -0.153343 19.6536 0.0741215Z" fill="#D77024" fill-opacity="0.74"/>
<path d="M18.3828 1.7689L18.2358 2.13292L17.8472 2.07638L17.2729 1.9928L17.2713 1.99256C17.2134 1.98394 17.1583 1.9757 17.1059 1.96785C16.8245 1.92578 16.6181 1.89489 16.4515 1.87576C16.2543 1.85309 16.1489 1.85168 16.0756 1.86007C15.9443 1.87509 15.8676 1.91777 15.4219 2.18021L15.4205 2.18105C14.945 2.45892 14.2459 3.04997 13.573 3.7258C12.9011 4.40068 12.3084 5.10669 12.0232 5.59057C11.3921 6.66916 10.9347 7.84929 10.6949 9.04755L10.6941 9.05125C10.4003 10.4633 10.5035 12.7692 10.9103 14.1381C11.1379 14.8685 11.2449 15.4333 11.1771 15.8575L11.1772 15.8576L11.1761 15.8638C11.1378 16.0851 11.1601 16.5044 11.2501 16.9954C11.3379 17.4743 11.4769 17.9493 11.6258 18.2688C11.7717 18.5752 11.9814 18.8548 12.2096 19.0657C12.4428 19.2811 12.662 19.3948 12.8197 19.4257C13.0415 19.4656 13.2743 19.5403 13.4784 19.7718C13.6398 19.9548 13.7611 20.2166 13.8925 20.5193L13.8939 20.5226C14.3821 21.6698 15.2074 22.886 16.0876 23.7893C16.0879 23.7896 16.0883 23.79 16.0886 23.7904L16.9594 24.673L17.1034 24.819V25.0241V25.897V26.7585V26.983L16.9356 27.1322L16.3977 27.6104L16.3951 27.6126C16.0331 27.9301 15.6003 28.1648 14.709 28.4935C13.8211 28.8209 12.4278 29.2589 10.1112 29.9634L10.1103 29.9637C4.89276 31.5389 3.16497 32.3124 2.04766 33.3859L2.047 33.3866C1.39131 34.0143 0.991137 34.6043 0.76096 35.3132C0.526966 36.0338 0.455658 36.9165 0.525792 38.1517L0.525824 38.1517L0.526082 38.1574C0.555071 38.7963 0.648956 39.7443 0.751436 40.5608C0.80255 40.968 0.855051 41.3364 0.901548 41.6121C0.921811 41.7323 0.940234 41.8306 0.956169 41.9049C0.958739 41.9062 0.961359 41.9076 0.964032 41.909C1.07145 41.9644 1.22931 42.0386 1.4314 42.1285C1.83361 42.3075 2.38625 42.5377 3.00539 42.7855C4.24407 43.2813 5.72912 43.8394 6.77493 44.188C10.0664 45.2811 13.5118 46.0871 16.4593 46.4522C16.4523 46.4423 16.4452 46.4322 16.438 46.4221C16.1137 45.9638 15.6725 45.3497 15.1949 44.6934L15.194 44.6921L13.4477 42.2759L13.2565 42.0113L13.4218 41.7298L14.4266 40.0193L15.4314 38.3089L15.5755 38.0635L15.8601 38.0621L28.0118 38.0024L39.9179 37.9439L40.6868 37.015C40.6872 37.0143 40.6877 37.0137 40.6882 37.0131C41.1481 36.4478 41.3307 36.2143 41.4082 36.0645C41.435 36.0127 41.4363 35.9941 41.4369 35.9843L41.4369 35.9836C41.4387 35.9566 41.4361 35.9153 41.4174 35.7911C41.3333 35.2409 41.0113 34.5786 40.5134 33.949C40.0194 33.3241 39.3838 32.7721 38.7252 32.4263L38.7234 32.4253C37.5749 31.8164 35.3561 31.0031 32.3067 30.0819L32.3051 30.0814C29.343 29.1756 27.7096 28.6661 26.7633 28.2903C26.2885 28.1017 25.9523 27.9339 25.6982 27.7472C25.4289 27.5495 25.273 27.3461 25.1374 27.1287L25.1363 27.1269C24.9117 26.7632 24.8342 26.3095 24.8342 25.8235C24.8342 25.8074 24.8342 25.7912 24.8342 25.775C24.8337 25.5096 24.8332 25.2232 24.9587 24.972C25.0299 24.8294 25.1272 24.721 25.2265 24.6291C25.3211 24.5415 25.4394 24.4497 25.5663 24.3515L25.5671 24.351C26.375 23.7288 27.5034 22.2673 28.1378 20.9641L28.1389 20.9619C28.345 20.5436 28.5233 20.2165 28.6738 19.9884C28.7478 19.8762 28.8268 19.7697 28.9102 19.6856C28.9521 19.6434 29.0071 19.5945 29.0749 19.5536C29.1324 19.5189 29.2237 19.4751 29.3403 19.4652C29.3432 19.4644 29.3466 19.4633 29.3505 19.4619C29.3815 19.4515 29.4275 19.4334 29.4859 19.4068C29.6022 19.3537 29.7429 19.2782 29.8723 19.1953L29.8727 19.1951C30.0561 19.0778 30.1702 18.9798 30.2716 18.8552C30.3792 18.723 30.4881 18.542 30.6382 18.2361L30.6382 18.2361L30.6399 18.2327C30.8138 17.8848 30.8925 17.694 30.9433 17.4552C30.9978 17.1992 31.0238 16.8718 31.0539 16.2437L31.0539 16.2437L31.0545 16.2345C31.1154 15.3193 31.2382 14.4547 31.4318 13.7844L31.4323 13.7826C31.6167 13.1535 31.7202 12.181 31.7246 11.1699C31.729 10.1599 31.6342 9.17323 31.4539 8.51778L31.4534 8.51595C30.5598 5.21679 28.2014 2.52042 25.134 1.27785L25.1332 1.27752C23.5984 0.652695 21.3061 0.354252 19.7209 0.569572C19.1824 0.643749 18.9864 0.698845 18.883 0.761143C18.8213 0.798286 18.7625 0.852543 18.6317 1.15289L18.3828 1.7689ZM0.985838 42.0233C0.98586 42.0232 0.985178 42.021 0.983727 42.0172C0.985091 42.0215 0.985816 42.0234 0.985838 42.0233Z" stroke="#D77024" stroke-opacity="0.74"/>
<path d="M47.6412 35.2139C45.1654 35.6563 42.6657 37.3787 41.4334 39.4957L40.9672 40.2969H29.0787H17.1897L16.9145 40.919C16.7586 41.2659 16.6512 41.5769 16.6631 41.5889C16.687 41.6128 22.1169 41.6367 28.7313 41.6367C41.4334 41.6367 40.8949 41.6128 40.6919 42.1387C40.6203 42.3065 39.4477 42.3304 28.5521 42.3304C21.9139 42.3304 16.484 42.3543 16.484 42.3901C16.484 42.4259 17.2374 43.3471 18.1706 44.4235L19.8452 46.3967H20.5628C21.2088 46.3967 21.3521 46.3489 22.3211 45.7388C22.9073 45.38 23.5169 45.0809 23.6847 45.0809C23.8518 45.0809 24.45 45.4158 25.1079 45.8821C26.2321 46.6713 26.8542 46.9346 27.3086 46.7907C27.4399 46.7549 28.062 46.2409 28.6841 45.6546C29.653 44.7573 29.868 44.602 30.179 44.6259C30.502 44.6617 30.5617 44.7334 30.825 45.4629C31.1599 46.42 31.3277 46.4797 32.0208 45.8576C32.619 45.3077 33.0256 45.3077 33.6596 45.8337C35.3104 47.245 35.4895 47.3525 36.04 47.3525H36.5785V48.6086V49.8761L37.2722 49.4098C38.3844 48.6564 39.1982 48.2856 39.9391 48.2259L40.6209 48.1543L41.3146 49.2188C43.4913 52.5555 46.8526 54.3502 50.2012 53.943C54.1004 53.4648 57.2102 50.7495 58.2389 46.9221C58.5977 45.5943 58.5977 43.4773 58.2389 42.1495C57.2819 38.5614 54.615 35.99 51.1105 35.2599C49.8783 35.0109 48.8377 34.9871 47.6412 35.2139ZM54.8777 42.3065C56.3129 43.1919 56.4807 45.3567 55.1768 46.4928C54.6025 47.0068 54.2914 47.1149 53.4902 47.1149C51.1218 47.1149 50.0454 44.1608 51.8395 42.5817C52.7487 41.7805 53.849 41.685 54.8777 42.3065Z" fill="#D77024" fill-opacity="0.74"/>
<path d="M47.7344 35.7052L47.7344 35.7052C48.8606 35.4916 49.8353 35.5125 51.0099 35.7497C54.3209 36.4401 56.8455 38.8655 57.7558 42.2783L57.7562 42.2799C58.0919 43.5223 58.0919 45.5493 57.7562 46.7916L57.756 46.7923C56.7797 50.425 53.8354 52.9933 50.1409 53.4467L47.7344 35.7052ZM47.7344 35.7052L47.7292 35.7061M47.7344 35.7052L47.7292 35.7061M47.7292 35.7061C45.393 36.1236 43.0216 37.7612 41.8656 39.7473L41.3993 40.5484L41.2547 40.7969H40.9672H29.0787H17.5152L17.3794 41.104M47.7292 35.7061L17.3794 41.104M17.3794 41.104C17.4578 41.1048 17.5425 41.1056 17.6332 41.1064C18.2478 41.112 19.1345 41.1173 20.2278 41.1217C22.4142 41.1307 25.4246 41.1367 28.7313 41.1367C29.2894 41.1367 29.8221 41.1366 30.3305 41.1366C35.5985 41.1361 38.2573 41.1359 39.5719 41.1909C39.9334 41.206 40.2075 41.2258 40.4121 41.2531C40.5958 41.2777 40.796 41.3159 40.9524 41.4097C41.0435 41.4645 41.1481 41.5547 41.2102 41.697C41.2722 41.839 41.2651 41.9713 41.2486 42.0586C41.2336 42.1388 41.2054 42.2069 41.192 42.2391C41.1825 42.2618 41.1768 42.2749 41.1724 42.2849C41.1672 42.2969 41.1639 42.3045 41.1584 42.3188L41.1552 42.327L41.1518 42.3351C41.0436 42.5884 40.7997 42.6577 40.7303 42.6769C40.6243 42.7064 40.4925 42.724 40.3414 42.7375C40.0307 42.7651 39.5201 42.784 38.6891 42.7974C37.02 42.8244 33.9981 42.8304 28.5521 42.8304C25.2335 42.8304 22.2173 42.8364 20.0311 42.8468C18.9726 42.8519 18.1095 42.858 17.5012 42.8649C17.7873 43.2086 18.1513 43.638 18.5484 44.096L18.5484 44.096L18.5518 44.1L20.0767 45.8967H20.5628C20.8746 45.8967 20.9969 45.8834 21.1469 45.8278C21.3267 45.761 21.5593 45.6276 22.0546 45.3157L22.0546 45.3156L22.0601 45.3123C22.3647 45.1258 22.678 44.9532 22.9416 44.8254C23.0728 44.7618 23.1983 44.706 23.308 44.6649C23.3944 44.6326 23.5417 44.5809 23.6847 44.5809C23.8413 44.5809 23.9967 44.6442 24.0827 44.6812C24.1947 44.7294 24.3224 44.7949 24.4572 44.8707C24.7281 45.023 25.0567 45.2329 25.3962 45.4735M17.3794 41.104L50.1404 53.4467C50.1405 53.4467 50.1407 53.4467 50.1408 53.4467C47.0211 53.8259 43.8299 52.1592 41.7335 48.9458L41.3146 49.2188L41.7334 48.9456L41.0398 47.8813L40.8728 47.6251L40.5686 47.657L39.8926 47.7281M25.3962 45.4735C25.3959 45.4733 25.3955 45.473 25.3952 45.4728L25.1079 45.8821L25.3971 45.4741C25.3968 45.4739 25.3965 45.4737 25.3962 45.4735ZM25.3962 45.4735C25.9505 45.8626 26.3505 46.0997 26.6512 46.2245C26.9176 46.3351 27.0568 46.337 27.1326 46.3207M27.1326 46.3207C27.1479 46.3109 27.1698 46.296 27.199 46.275C27.2731 46.2215 27.3733 46.1432 27.4939 46.0436C27.7338 45.8453 28.0367 45.5777 28.3412 45.2907L28.3444 45.2877C28.8211 44.8463 29.1448 44.556 29.3936 44.3837C29.5234 44.2939 29.6553 44.2197 29.7985 44.174C29.9498 44.1258 30.0877 44.1174 30.2173 44.1274L30.2257 44.128L30.2341 44.129C30.3226 44.1388 30.4475 44.1556 30.5728 44.2082C30.7145 44.2677 30.8276 44.3595 30.9193 44.4776C31.0018 44.5839 31.0638 44.7076 31.1171 44.8304C31.1717 44.9561 31.2294 45.1106 31.2953 45.2932L31.2953 45.2932L31.2969 45.2978C31.3577 45.4713 31.4068 45.5965 31.4484 45.686M27.1326 46.3207C27.1418 46.3187 27.1501 46.3164 27.1576 46.314L27.1672 46.311L27.177 46.3083C27.1701 46.3102 27.1636 46.3122 27.1576 46.3142C27.1375 46.3208 27.123 46.3274 27.1157 46.331M27.1326 46.3207C27.1282 46.3235 27.1244 46.3258 27.1211 46.3278C27.1189 46.3291 27.1171 46.3302 27.1157 46.331M31.4484 45.686C31.5088 45.6403 31.5858 45.5761 31.6847 45.4874M31.4484 45.686C31.4053 45.7187 31.3706 45.7418 31.3427 45.7576C31.3282 45.7658 31.3195 45.7698 31.3157 45.7713M31.4484 45.686C31.4635 45.7185 31.4777 45.7463 31.4911 45.77C31.5092 45.8021 31.5209 45.8176 31.5252 45.8228M31.6847 45.4874C32.0118 45.1871 32.3788 44.9474 32.821 44.9422C33.2594 44.9371 33.6367 45.165 33.9789 45.4489L33.9789 45.4488L33.9846 45.4537C34.8213 46.169 35.2476 46.5206 35.5306 46.7003C35.6626 46.7842 35.741 46.8156 35.7973 46.8307C35.8542 46.8459 35.9173 46.8525 36.04 46.8525H36.5785H37.0785V47.3525V48.6086V48.9375M31.6847 45.4874C31.6854 45.4867 31.6861 45.4861 31.6869 45.4855L32.0208 45.8576L31.6825 45.4895C31.6832 45.4888 31.684 45.4881 31.6847 45.4874ZM37.0785 48.9375C38.1651 48.2105 39.0425 47.7983 39.8926 47.7281M37.0785 48.9375C37.05 48.9566 37.0214 48.9758 36.9926 48.9953M37.0785 48.9375V49.1216L37.2722 49.4098M39.8926 47.7281C39.8947 47.7279 39.8968 47.7277 39.8989 47.7276L39.9391 48.2259L39.8868 47.7287L39.8926 47.7281ZM36.9926 48.9953L40.6209 48.1543L39.9391 48.2259C39.1982 48.2856 38.3844 48.6564 37.2722 49.4098M36.9926 48.9953C36.9923 48.9955 36.9921 48.9957 36.9918 48.9959M36.9926 48.9953L36.9918 48.9959M37.2722 49.4098L37.0785 49.1238V49.54L37.2722 49.4098ZM36.9918 48.9959L36.5785 49.2737V48.6086V47.8525V47.3525L36.9918 48.9959ZM31.3157 45.7713C31.3265 45.7678 31.3764 45.7547 31.4466 45.7781C31.4935 45.7937 31.5185 45.816 31.5252 45.8228M31.3157 45.7713C31.3142 45.772 31.3135 45.7722 31.3135 45.7722C31.3136 45.7721 31.3143 45.7718 31.3157 45.7713ZM31.5252 45.8228C31.5265 45.824 31.5271 45.8248 31.5271 45.8248C31.5271 45.8249 31.5264 45.8242 31.5252 45.8228ZM27.1157 46.331C27.1123 46.3327 27.1105 46.3338 27.1104 46.3339C27.1103 46.334 27.112 46.3332 27.1157 46.331ZM40.4629 41.7134C40.4768 41.7095 40.4727 41.7091 40.4576 41.7147C40.4598 41.7142 40.4615 41.7137 40.4629 41.7134ZM55.1363 41.8785L55.1402 41.881C56.8695 42.9478 57.0557 45.5159 55.5077 46.8676C55.2043 47.139 54.9274 47.343 54.5902 47.4662C54.2559 47.5884 53.9061 47.6149 53.4902 47.6149C50.6392 47.6149 49.3856 44.0758 51.5089 42.2066C52.0328 41.7449 52.6327 41.4696 53.2692 41.4126C53.9056 41.3556 54.5429 41.5201 55.1363 41.8785Z" stroke="#D77024" stroke-opacity="0.74"/>
</svg>
