<svg width="97" height="46" viewBox="0 0 97 46" fill="none" xmlns="http://www.w3.org/2000/svg">
<path d="M46.8532 0.0814438C46.8101 0.113777 46.7778 7.69022 46.7778 16.9048C46.7778 32.1331 46.767 33.6527 46.6053 33.5881C46.5083 33.5557 46.4114 33.5234 46.3898 33.5234C46.3682 33.5234 46.3467 25.9901 46.3467 16.797V0.0598907L46.0557 0.361652C45.7863 0.620308 45.7539 0.749638 45.7 1.57949L45.6462 2.50634L44.0835 3.15298C43.2213 3.50863 42.3591 3.8535 42.1651 3.91817C41.9064 4.00438 41.0658 3.98283 38.8241 3.84272L35.8388 3.63795L32.1745 5.233C30.1592 6.10596 27.0769 7.44234 25.3309 8.19675C23.585 8.95116 21.4296 9.88879 20.535 10.2768C17.3019 11.6778 13.8208 13.1866 12.3982 13.801C11.6007 14.1458 10.1457 14.7709 9.165 15.202C8.18426 15.6223 6.72933 16.2582 5.93181 16.6031C0.467717 18.9633 0.165952 19.0926 0.0689566 19.3513C0.0366247 19.4483 0.00429277 23.6837 0.00429277 28.7706C0.00429277 39.591 -0.146589 38.481 1.34068 38.481C2.49385 38.481 2.54774 38.5349 2.31064 39.5156C1.96576 40.9597 2.31064 43.1368 2.9896 43.8912C3.0866 43.9989 3.14049 44.1067 3.11893 44.1283C3.09738 44.1498 2.62318 44.3977 2.08431 44.6671C1.53467 44.9366 1.08202 45.1845 1.08202 45.2168C1.08202 45.2491 22.4534 45.2707 48.5884 45.2599H96.0839L94.8445 44.624L93.6051 43.9882H92.1287C91.3096 43.9774 90.6414 43.9343 90.6414 43.8804C90.6414 43.8265 90.7168 43.7187 90.8246 43.6433C91.1587 43.3631 91.7514 42.3177 92.0424 41.4986L92.3226 40.6903L94.435 40.6364C96.3102 40.5933 96.5689 40.561 96.7737 40.3778C96.9892 40.1838 97 40.076 97 37.7697V35.3663L96.7198 35.1508C96.5042 34.9783 96.2779 34.9245 95.8037 34.9245C95.2002 34.9245 95.1679 34.9137 95.1032 34.6335C95.0709 34.461 94.9631 34.0515 94.8876 33.7066C94.7152 33.0384 94.7475 32.8768 95.0493 32.8768C95.1571 32.8768 95.3726 32.7798 95.5343 32.6504L95.8145 32.4349V30.7321C95.8145 28.4796 95.9007 28.5659 93.7776 28.5659H92.2364L91.4174 27.8007L90.5875 27.0463L90.5336 24.2765L90.4797 21.4959L90.1133 20.9247C89.4774 19.9332 89.6607 20.0087 82.6662 18.058C79.2175 17.0988 78.6355 16.9264 78.56 16.8402C78.5169 16.797 78.3876 16.4737 78.2691 16.1181C76.7926 11.7425 75.9412 9.42537 75.6071 8.84339C74.2276 6.40772 71.9751 4.11216 69.9059 3.02365C69.4317 2.78655 69.1407 2.70033 68.7096 2.70033C67.9552 2.70033 67.7935 2.62489 67.7935 2.28002C67.7935 0.965187 65.7135 0.717308 65.4656 2.01058C65.3794 2.45245 65.5195 2.44168 62.7282 2.21535C61.6289 2.12914 59.4519 1.9567 57.8784 1.83815C56.3049 1.7196 53.7184 1.51483 52.1233 1.39628C49.2242 1.16995 49.0195 1.18073 48.2219 1.48249C48.1142 1.5256 48.0711 1.43939 48.0711 1.13762C48.0711 0.512539 47.1873 -0.252651 46.8532 0.0814438ZM52.6622 2.26924C55.9816 2.52789 61.4349 2.93743 65.6381 3.2392C68.785 3.46552 68.8281 3.4763 69.5179 3.81039C71.0698 4.5648 72.8912 6.25684 74.1413 8.07821C75.2191 9.67324 75.0682 9.30682 77.6763 16.9264C77.7733 17.1958 77.9026 17.4652 77.9673 17.5299C78.0319 17.5946 78.8402 17.8532 79.7563 18.1011C80.6724 18.3597 81.8148 18.6723 82.289 18.8124C82.7632 18.9525 84.4013 19.4159 85.9317 19.847C87.4944 20.2781 88.8308 20.72 88.9817 20.8278C89.1218 20.9463 89.3373 21.2265 89.4559 21.4636C89.6499 21.8408 89.6714 22.0995 89.6714 24.6321V27.3804L89.402 27.2079L89.1326 27.0355V24.5136V21.9917L88.7661 21.5822L88.3997 21.1834L82.5907 21.1511C78.6678 21.1295 76.6632 21.1511 76.3938 21.2373C76.1567 21.302 75.898 21.4852 75.7472 21.7007L75.4993 22.0456L75.4454 27.5743L75.3915 33.1031L74.9604 32.284C74.7233 31.8314 74.497 31.4326 74.4539 31.4111C74.4 31.3787 74.3677 31.5081 74.3677 31.6805V32.0146H71.6733H68.979V30.7213V29.428H70.7896C71.7919 29.428 72.6433 29.3957 72.6756 29.3526C72.7618 29.2772 72.1044 28.6952 71.2099 28.0593C67.7827 25.6344 62.9761 25.3111 59.2148 27.2295C55.7014 29.0185 53.3088 32.3595 52.8023 36.1746C52.7376 36.7027 52.673 37.1446 52.6514 37.1661C52.6083 37.2092 48.9979 37.511 48.4806 37.511H48.0711V19.944V2.37701L48.4267 2.22613C48.9009 2.01058 49.5583 2.02136 52.6622 2.26924ZM45.7 17.9825V32.6181L41.7987 33.0492C39.6432 33.2971 37.8542 33.4695 37.8111 33.448C37.7572 33.4264 37.7248 27.4019 37.7248 20.0626C37.7248 9.51159 37.7572 6.68793 37.8649 6.61249C37.9296 6.55861 38.6301 6.25684 39.3953 5.95507C40.1713 5.64253 41.8849 4.94201 43.2213 4.38159C44.5577 3.82117 45.6569 3.35775 45.6785 3.35775C45.6893 3.34697 45.7 9.9319 45.7 17.9825ZM36.0005 19.1249V33.7066L34.4162 33.8898C33.5325 33.9868 31.9482 34.1593 30.8813 34.2886C29.1569 34.4718 22.4857 35.2262 12.1826 36.3902C10.3182 36.5949 7.91483 36.8644 6.84788 36.9829C5.78093 37.1015 4.11044 37.2847 3.12971 37.4032C2.14898 37.5218 1.24368 37.6188 1.10358 37.6188H0.866477L0.888031 28.6521L0.920363 19.6746L1.99809 19.2112C2.59084 18.9525 3.73324 18.4567 4.53076 18.1119C5.32828 17.767 6.78321 17.1311 7.76395 16.7108C8.74468 16.2797 9.85474 15.7948 10.2427 15.6331C10.6307 15.4714 12.0856 14.8356 13.4759 14.232C16.3427 12.9927 18.6382 11.9904 23.0677 10.0828C24.7598 9.34993 26.9368 8.40152 27.9175 7.98121C29.6419 7.2268 31.0106 6.63404 34.2761 5.22222C35.1383 4.84501 35.8712 4.54325 35.925 4.54325C35.9681 4.53247 36.0005 11.0958 36.0005 19.1249ZM62.2109 28.9431C63.0838 29.1263 63.7089 29.3957 64.4849 29.9022C65.1638 30.3549 66.2416 31.4218 66.7697 32.1762C67.2115 32.7906 68.0198 34.4287 68.2785 35.2154L68.4617 35.7866H82.3536H96.2456V37.7804V39.7742H82.6877C75.2191 39.7742 68.688 39.8066 68.1492 39.8389L67.1792 39.9144L67.1038 39.0629C66.8882 36.5087 66.1338 34.4287 64.8405 32.8013C62.5773 29.9669 59.2579 29.6651 56.7144 32.0577C54.9254 33.7497 53.9447 36.1531 53.7938 39.2354L53.7291 40.5825L53.3735 40.6149C53.1256 40.6364 53.0071 40.5933 52.9639 40.4748C52.8454 40.173 53.1041 37.511 53.3627 36.4333C54.1171 33.2001 55.9277 30.6243 58.2556 29.4711C59.5597 28.8245 60.8637 28.6521 62.2109 28.9431ZM95.0601 30.7213V32.0146H92.3658H89.6714V30.7213V29.428H92.3658H95.0601V30.7213ZM60.6805 34.9137C61.1331 35.1508 61.8013 36.0884 61.9953 36.7566C62.2109 37.5002 62.1785 39.1815 61.9307 39.8281C61.5103 40.9382 60.7559 41.7142 60.0985 41.7142C58.7945 41.7142 57.6844 39.4833 57.9969 37.511C58.1802 36.3147 58.7082 35.3663 59.4411 34.9137C59.8506 34.655 60.2063 34.655 60.6805 34.9137ZM47.4244 34.9568C47.4244 34.9783 47.1873 35.1508 46.8963 35.334C46.2605 35.7543 45.7324 36.4979 45.6354 37.1338L45.5707 37.5972L44.3744 37.6619C39.4492 37.9421 37.8757 38.0283 37.8218 37.9852C37.7248 37.9313 37.8757 37.3062 38.0805 36.9075C38.3284 36.4225 39.0612 35.8082 39.5247 35.7004C39.751 35.6465 41.5616 35.4525 43.5446 35.2693C45.5276 35.0969 47.2196 34.946 47.2951 34.9352C47.3598 34.9352 47.4244 34.9352 47.4244 34.9568ZM31.0106 37.7589C31.4417 38.2546 31.6141 38.9336 31.5602 39.9575C31.5171 40.9059 31.2692 41.5202 30.8058 41.865C30.5472 42.0483 30.4717 42.059 30.2346 41.9297C30.0837 41.8543 29.8251 41.5202 29.6634 41.1861C29.4155 40.6688 29.3724 40.4532 29.3724 39.6665C29.3832 38.8905 29.4263 38.6642 29.6742 38.19C30.1268 37.3062 30.5041 37.1877 31.0106 37.7589ZM25.234 38.0607C25.859 38.6857 26.0746 40.2484 25.6758 41.2723C25.2663 42.3392 24.5658 42.3824 24.0916 41.3693C23.5958 40.3023 23.779 38.7181 24.4795 38.0607C24.7921 37.7804 24.943 37.7697 25.234 38.0607ZM8.63691 39.2354C8.94945 39.6557 9.08956 40.6472 8.94945 41.3477C8.79857 42.0806 8.41059 42.5763 8.1196 42.4039C7.39752 41.9728 7.28975 39.8389 7.95794 39.0953C8.17349 38.8474 8.38903 38.8905 8.63691 39.2354ZM46.1635 39.5156C46.3359 39.7204 46.4545 39.9144 46.4329 39.9251C46.4221 39.9467 44.6331 40.0221 42.4669 40.0976L38.5439 40.2269L38.296 39.9251C38.1667 39.7527 38.0805 39.6018 38.1128 39.5695C38.1559 39.5264 43.7925 39.1923 45.4306 39.1384C45.8078 39.1276 45.9048 39.1815 46.1635 39.5156ZM5.02651 39.7419C5.3175 40.3239 5.30672 41.6387 5.01574 42.1345C4.7463 42.5979 4.6062 42.641 4.33677 42.35C3.84101 41.8327 3.77635 40.3993 4.21822 39.6772C4.49843 39.2246 4.77864 39.2462 5.02651 39.7419ZM80.7047 40.8735C80.8448 41.4232 81.7178 42.9859 82.1273 43.4278C82.3644 43.6864 82.5476 43.9235 82.5261 43.9451C82.5045 43.9666 78.7001 43.9666 74.0659 43.9558L65.6488 43.9235L66.0368 43.4385C66.4571 42.8997 67.1469 41.5633 67.1469 41.2615C67.1469 41.1537 67.2439 40.9705 67.3624 40.852C67.578 40.6364 67.7181 40.6364 74.109 40.6364H80.6401L80.7047 40.8735ZM56.2402 42.0698C56.4235 42.4362 56.8222 43.0182 57.124 43.3523L57.6844 43.9774H53.3088C49.2566 43.9774 48.6638 43.9451 49.041 43.708C49.2027 43.611 49.7523 42.4793 49.8385 42.0698C49.8816 41.8866 49.9786 41.6818 50.0433 41.6172C50.1618 41.5202 55.5182 41.2831 55.7876 41.3693C55.863 41.3908 56.0678 41.7034 56.2402 42.0698ZM14.7153 41.5956C14.7476 41.6495 14.8231 41.9513 14.877 42.2746C14.9416 42.5871 15.1033 43.0829 15.2542 43.3631C15.4051 43.6541 15.5236 43.9127 15.5236 43.9343C15.5236 43.9558 14.5752 43.9774 13.422 43.9774C12.2689 43.9774 11.3205 43.9558 11.3205 43.9235C11.3205 43.8912 11.4175 43.6756 11.536 43.4385C11.6546 43.2014 11.8162 42.7272 11.9024 42.3716C11.9887 42.0159 12.0856 41.6818 12.1288 41.6172C12.215 41.4663 14.6183 41.4555 14.7153 41.5956ZM36.2699 42.544C36.4208 42.8781 36.6687 43.32 36.8088 43.5032C36.9597 43.6972 37.0782 43.8804 37.0782 43.9127C37.0782 43.9451 36.5501 43.9774 35.8927 43.9774C35.2461 43.9774 34.7072 43.9558 34.7072 43.9235C34.7072 43.902 34.8258 43.708 34.9659 43.4924C35.1167 43.2769 35.3215 42.8781 35.4185 42.5979C35.7418 41.7357 35.9143 41.7249 36.2699 42.544Z" fill="#D77024" fill-opacity="0.74"/>
</svg>
